PathFileType	4	(X/Y/Z)	Patient4_TMGait_0pt2_01_right_06.trc.trc
DataRate	CameraRate	NumFrames	NumMarkers	Units	OrigDataRate	OrigDataStartFrame	OrigNumFrames
40.816326530612	40.816326530612	5	33	mm	40.816326530612	71	       141
Frame#	Time	Sacral			L.Shoulder			Chest			R.Shoulder			Neck			R.ASIS			L.ASIS			R.Thigh.Superior			R.Thigh.Lateral			R.Thigh.Inferior			R.Patella			L.Thigh.Superior			L.Thigh.Lateral			L.Thigh.Inferior			L.Patella			L.Shank.Superior			L.Shank.Lateral			L.Shank.Inferior			R.Shank.Superior			R.Shank.Lateral			R.Shank.Inferior			R.Heel			R.Midfoot.Superior			R.Midfoot.Lateral			R.Toe			L.Heel			L.Midfoot.Lateral			L.Midfoot.Superior			L.Toe			L.Elbow			L.Wrist			R.Elbow			R.Wrist			
		X1	Y1	Z1	X2	Y2	Z2	X3	Y3	Z3	X4	Y4	Z4	X5	Y5	Z5	X6	Y6	Z6	X7	Y7	Z7	X8	Y8	Z8	X9	Y9	Z9	X10	Y10	Z10	X11	Y11	Z11	X12	Y12	Z12	X13	Y13	Z13	X14	Y14	Z14	X15	Y15	Z15	X16	Y16	Z16	X17	Y17	Z17	X18	Y18	Z18	X19	Y19	Z19	X20	Y20	Z20	X21	Y21	Z21	X22	Y22	Z22	X23	Y23	Z23	X24	Y24	Z24	X25	Y25	Z25	X26	Y26	Z26	X27	Y27	Z27	X28	Y28	Z28	X29	Y29	Z29	X30	Y30	Z30	X31	Y31	Z31	X32	Y32	Z32	X33	Y33	Z33	

71	13.165000000000	790.309159533842	1004.487010499493	594.281490861919	922.827262451262	1425.827787122477	371.949186332112	1061.392513835692	1358.872230207836	505.394073136145	1021.279012167028	1438.144146508304	690.426924788472	943.110533182664	1489.986044881680	526.248713518937	1033.556999556564	934.657391455863	668.034231217725	973.136355660166	957.753221362804	400.226835481597	1036.850863393942	725.213673228273	631.252993913798	946.705169918977	621.970690514013	697.531586509834	1002.108385654230	564.973807444884	607.788236448668	987.305006871754	478.843217118414	611.301672113960	1045.785653587272	763.401414662711	420.096924982822	980.757997563557	639.776872045124	345.695460031172	1083.012301770351	577.260737151612	400.516348251738	1100.593571624293	512.272118127011	396.950039815743	1085.577947261708	440.462250454982	382.161136206545	1016.764297981117	314.457494262392	322.468480358053	1101.565054621428	209.647763356769	372.644664816238	949.460876358694	393.133840373119	616.921120476262	868.925344952076	294.964561401898	676.908822171860	895.653715350993	200.310512715998	607.209890009933	743.667455485935	43.496258606618	572.303974946037	914.724511550443	95.049433831948	610.709681458743	825.262919798248	36.791810733781	649.151743997997	1033.641671931861	42.228808607321	644.153262152628	1007.217213300251	36.254152020344	398.510602135311	1085.703419838767	37.723004426069	322.271437037814	1161.978089107916	108.370985752454	349.220454264483	1294.425945498428	68.801339128723	328.591955638435	791.878102112010	1094.722659641865	295.933924488760	776.387183111339	838.544911196907	354.723666697736	1238.697016596550	1183.655178137446	783.095902345984	1444.383290808510	1285.195810779092	671.678846351428	
72	13.189500000000	791.298998218076	1004.383469849502	590.271381949775	924.070739998994	1424.907400173375	367.048701119159	1062.619490283810	1358.195692884056	500.672743002892	1022.426867346796	1437.815641108113	685.490832434911	944.196667456376	1489.508024389393	521.219452996769	1034.371259753861	934.285832246661	664.672855869234	974.183803054962	956.726788024929	396.754964816783	1036.070071513365	724.358358090699	628.688728850736	944.621889356490	622.097528404163	695.248106995115	999.431025627715	564.187066514188	605.919203257123	983.669449841753	478.375117506098	609.614051092151	1045.624499514138	761.121522345126	416.350658167082	977.435099231375	637.781465914897	343.707588745303	1079.605981783050	574.825287101820	397.549422915263	1095.280115319796	510.126811146897	394.983317989762	1081.572850835869	438.545322376449	380.360347539607	1013.720464140010	311.939807099570	321.664230874610	1099.214446219796	208.270842202572	372.426557104904	945.646180597393	392.935388732531	615.546433729527	864.711566252076	295.336100715048	675.970366358521	891.104018194615	200.226793585946	606.688607681998	738.740117709813	43.554060017449	572.316731944845	909.686860766510	94.837966442270	610.341413604920	820.339164962487	36.806504624570	649.120915005660	1028.720211468562	42.163806321533	644.169622744752	1005.541386083945	36.041331960841	399.097953849100	1083.868228747642	37.118761786290	322.804504578985	1160.227008189667	107.037809485706	349.931956330176	1292.175685657791	66.673965175785	329.533344805572	794.910574102850	1092.929259696234	291.101658458033	780.325459994835	836.460200235409	348.879176397473	1240.230866523900	1183.532198409640	776.638647788000	1442.123610235333	1288.073213594355	661.572068157570	
73	13.214000000000	792.460399315518	1004.285225213599	585.811224921763	925.612436763213	1423.963805691504	361.770794578576	1064.039975171676	1357.598468516462	495.722718437558	1023.565086931440	1437.583591855170	680.288021272597	945.389309744689	1489.060329509009	515.786835241126	1035.360363314916	933.957193927096	661.104601026285	975.645317542888	955.845327147191	393.038585736174	1035.729588158146	723.547543751862	625.906150245921	943.051194912797	622.187819938919	692.642416160128	997.441489188638	563.416595826965	603.782255010714	980.831289615988	477.792498464070	607.658491428779	1046.301754258474	759.393936566368	412.776570549372	975.626959551348	636.254831082520	341.640454877099	1077.546155394972	572.893785377428	394.851119488693	1091.433737591063	508.199645624674	393.117567629302	1078.525737410942	436.718442252150	378.652835279381	1010.799679846909	310.048341810995	320.905140814735	1096.123243183110	206.955052348659	372.357710751611	942.407404641328	392.663699410714	613.914190925840	860.940342109486	295.814183289261	674.847047794536	886.822540171692	200.158369928618	606.061948616139	733.859877020917	43.771663995296	572.321369521797	904.743253405078	94.684916313588	609.997367997955	815.461421862042	36.911335522389	649.067391604060	1023.833245679436	42.031859516467	644.199340549026	1001.912160773333	36.331486506155	399.968278011676	1079.969250860055	36.801237293950	323.451508304156	1156.829729463204	105.645177273536	350.703034173216	1288.117283312206	63.944840204532	330.191352216222	798.570740762380	1091.086085629451	285.437720380829	785.011163287626	834.293524624569	341.917432101937	1241.291280596892	1183.082381230524	770.361019226820	1439.671025434070	1290.080068811951	651.920475686513	
74	13.238500000000	793.724180126436	1004.281311248212	580.940679728136	927.400439028561	1423.114693392111	356.241132197219	1065.635409264510	1357.140769308286	490.610864389477	1024.743042944615	1437.489191175978	674.906324305552	946.691311895749	1488.716629542000	510.089649187691	1036.454123308711	933.702149289203	657.293889849230	977.421980706405	955.228638530171	389.055284579374	1035.687330506929	722.823957743530	622.860312947251	941.881962360177	622.292602182561	689.716856250698	996.002802881041	562.709713075303	601.359232420982	978.653672478599	477.161604900680	605.438112162724	1047.673390906718	758.293788987870	409.324402380019	975.250676736624	635.263161560802	339.362169065544	1076.722135721775	571.505071610989	392.338223870497	1089.018231781451	506.594232044227	391.298606108854	1076.467822309801	435.088808848749	376.992544378127	1008.264317147123	308.734036455859	319.998440571242	1092.680714961057	205.724634773618	372.326651127107	939.644147119350	392.371777097620	612.035568195863	857.538091207262	296.431666323507	673.539664998442	882.784031350060	200.155823685481	605.330870352959	729.033409928422	44.193680243692	572.312100894741	899.914956138767	94.613465464705	609.687578388924	810.634646573582	37.142193761222	648.990654237724	1018.980625845143	41.835958419909	644.240198100329	996.987639384449	36.850821197339	400.882306823678	1074.749478441254	36.633124551204	324.053578755175	1152.355784611496	104.275497669310	351.421350507032	1282.964994610325	61.010852651374	330.594755469975	802.770029737306	1089.359130362211	279.013178383351	790.445898565417	832.205904875260	333.903396149432	1242.066778774910	1182.471913467837	764.255636209268	1437.254862078361	1291.428609108893	642.740768891139	
75	13.263000000000	795.026261741679	1004.429194023749	575.700155710775	929.377621551937	1422.458186380943	350.582708208345	1067.370868914018	1356.867507681238	485.412956034108	1025.973316036228	1437.548277010010	669.440505574716	948.090377529941	1488.530373344553	504.268178113005	1037.583244074648	933.542951571374	653.218572950645	979.421481475612	954.945795904693	384.794136412356	1035.802554580333	722.223013190269	619.528591456428	940.996815636439	622.460728906485	686.496840311224	994.967876307278	562.107731852155	598.657306320786	976.980734783781	476.546875219034	602.977132633487	1049.566950906769	757.815237928807	405.925021594709	976.104272994424	634.792687703317	336.783479804151	1076.939788158412	570.631610318837	389.919212938380	1087.885226031581	505.351559624516	389.477840351293	1075.324354915981	433.714330612881	375.341096970958	1006.250454142348	307.919629665021	318.832971431831	1089.169297398753	204.604616016390	372.259266829157	937.247360571054	392.111309140523	609.939892021381	854.422900033808	297.213501024917	672.059717016364	878.956092116329	200.264839570321	604.503340057187	724.267360956587	44.862717697218	572.282877826706	895.218056383975	94.643024733088	609.418822790230	805.862272723048	37.534595557212	648.891515981557	1014.160937146287	41.582159642245	644.289044693207	991.338519719114	37.405911487059	401.675666124982	1068.836600018702	36.530380159340	324.514164623677	1147.275265231167	103.012084347922	352.020240251143	1277.285405964741	58.213821082992	330.794310513857	807.422449883610	1087.884871383910	271.918400761545	796.619243295890	830.333566902899	324.932687368510	1242.716275410688	1181.853251405996	758.311574439922	1435.084743361667	1292.312790329339	634.058207216748	
